<svg   id="chart"   width="1000"   height="NaN"   viewBox="0 0 1000 NaN"   xmlns="http://www.w3.org/2000/svg" >     		     <path d="  M0,NaN  h66.66666666666667  v-NaN  q0,-4 -4,-4  h-58.66666666666667  q-4,0 -4,4  Z" fill="#444cf7" /> <path d="  M83.33333333333333,NaN  h66.66666666666667  v-NaN  q0,-4 -4,-4  h-58.66666666666667  q-4,0 -4,4  Z" fill="#444cf7" /> <path d="  M166.66666666666666,NaN  h66.66666666666667  v-NaN  q0,-4 -4,-4  h-58.66666666666667  q-4,0 -4,4  Z" fill="#444cf7" /> <path d="  M250,NaN  h66.66666666666667  v-NaN  q0,-4 -4,-4  h-58.66666666666667  q-4,0 -4,4  Z" fill="#444cf7" /> <path d="  M333.3333333333333,NaN  h66.66666666666667  v-NaN  q0,-4 -4,-4  h-58.66666666666667  q-4,0 -4,4  Z" fill="#444cf7" /> <path d="  M416.66666666666663,NaN  h66.66666666666667  v-NaN  q0,-4 -4,-4  h-58.66666666666667  q-4,0 -4,4  Z" fill="#444cf7" /> <path d="  M500,NaN  h66.66666666666667  v-NaN  q0,-4 -4,-4  h-58.66666666666667  q-4,0 -4,4  Z" fill="#444cf7" /> <path d="  M583.3333333333333,NaN  h66.66666666666667  v-NaN  q0,-4 -4,-4  h-58.66666666666667  q-4,0 -4,4  Z" fill="#444cf7" /> <path d="  M666.6666666666666,NaN  h66.66666666666667  v-NaN  q0,-4 -4,-4  h-58.66666666666667  q-4,0 -4,4  Z" fill="#444cf7" /> <path d="  M750,NaN  h66.66666666666667  v-NaN  q0,-4 -4,-4  h-58.66666666666667  q-4,0 -4,4  Z" fill="#444cf7" /> <path d="  M833.3333333333333,NaN  h66.66666666666667  v-NaN  q0,-4 -4,-4  h-58.66666666666667  q-4,0 -4,4  Z" fill="#444cf7" /> <path d="  M916.6666666666666,NaN  h66.66666666666667  v-NaN  q0,-4 -4,-4  h-58.66666666666667  q-4,0 -4,4  Z" fill="#444cf7" /> </svg>